<svg id="Layer_1" data-name="Layer 1" xmlns="http://www.w3.org/2000/svg" viewBox="0 0 371.56 1000"><defs><style>.cls-1{fill:#965849;}</style></defs><title>iconmark_copper</title><path class="cls-1" d="M83.32,229.21c-1.17,65.59.64,131.31.05,196.94-.52,56.75-.75,113.51.56,170.23,1,44.13,3.83,88.28,3.51,132.47-.27,37.23-2,74.49-2.42,111.73-.08,6.62,8.18,6.81,8.27.18.46-37.25,2.15-74.5,2.42-111.74.32-44.18-2.49-88.33-3.51-132.46-1.32-56.72-1.08-113.48-.57-170.23.6-65.63-1.21-131.35,0-196.94.12-6.62-8.15-6.81-8.27-.18Z"/><path class="cls-1" d="M100.84,229.58c-1.17,65.59.64,131.31,0,196.94-.51,56.76-.74,113.52.57,170.23,1,44.13,3.87,88.29,3.42,132.47-.37,37.24-2.11,74.48-2.57,111.73-.08,6.62,8.19,6.81,8.27.18.46-37.26,2.19-74.5,2.57-111.74.44-44.18-2.4-88.33-3.42-132.46-1.32-56.72-1.09-113.48-.57-170.23.6-65.63-1.21-131.35,0-196.94.11-6.62-8.15-6.81-8.27-.18Z"/><path class="cls-1" d="M107.94,251.73c50.92-5.69,101.46-4.44,152.45-5.26,19.63-.32,39.21-2.84,58.83-3.26,16.51-.36,32.64-.45,49.13-2.8,5.21-.74,3.17-10.32.22-10.28-16.66.22-32.62,2.44-49.13,2.79-19.62.43-39.2,3-58.83,3.26-51,.83-101.54-.43-152.45,5.27-5.25.58-5.53,10.88-.22,10.28Z"/><path class="cls-1" d="M106.33,327.35c42-1.19,84.13-4.37,126.08-3.81,44.09.59,89.1,5.39,133.08,1.21,5.26-.5,5.53-10.8.22-10.29-44,4.18-89-.61-133.08-1.2-42-.57-84.11,2.61-126.08,3.8-5.31.15-5.55,10.44-.22,10.29Z"/><path class="cls-1" d="M363.26,235.16c-.67,28.14-2.16,56.2-1.8,84.35.09,6.6,8.36,6.82,8.27.18-.36-28.16,1.12-56.21,1.79-84.36.16-6.62-8.11-6.8-8.26-.17Z"/><path class="cls-1" d="M86.82,232.11l17.84.83c5.31.25,5.53-10,.21-10.29L87,221.83c-5.31-.25-5.53,10-.21,10.28Z"/><path class="cls-1" d="M85.78,221.54c-5.31-.25-10.59-.29-15.91-.12l4,5.23c-.48-10.12,2.44-8.14,9.52-8,5,.07,10,.19,15,.42,6.81.31,25.17-2.74,24.84,8.26l5.34-4.85c-8.46-2-17.46-.23-26.11.1-5.3.21-4.82,7.77.51,7.57a83.25,83.25,0,0,1,23.19,2.2c2.62.63,5.24-1.26,5.34-4.85.48-16.43-2.7-16-15.85-17.44-8.5-.94-17-1.36-25.59-1.57-6.61-.17-15-1.73-21.49.3a4.7,4.7,0,0,0-3,3.53c-.9,4.67-.19,9.45,0,14.2.13,2.68,1.63,5.3,4,5.23,5.31-.17,10.59-.13,15.9.12s5.54-10,.22-10.29Z"/><path class="cls-1" d="M84.71,207.55c-6.48-14.67-14.77-29.49-19.82-45C60.4,148.73,61,132.7,60.91,118c-.17-18.1,11-27.13,20.57-38.93,4.73-5.84,9.46-13.49,14.85-18.32,7.79-7,8.3-4.82,15,3.52,8.15,10.13,17.51,20.64,22.88,33.39,1.31,3.1,4.2,8.57,4.55,11.84.61,5.77-.19,14-.3,19.82-.18,9.57.2,21-2.24,30.25-2.34,8.94-6.11,14.36-11,21-6.76,9.07-15.19,18.19-19,29.72-2,6.14,5.89,9,7.91,2.9,3.93-11.82,10-18,17.45-26.76,3.83-4.52,8.85-11.59,11.13-17.71,3.27-8.76,4.59-21.85,4.59-31.2S148,117.78,147,109c-1.13-9.45-6.18-19.86-11.05-27.07-5.85-8.66-12.17-16.88-18.59-24.87-3.44-4.28-8.43-13.43-13.49-14.84C95.55,39.91,84.63,60.71,79.5,67,70.66,78,54.5,90.6,52.78,106.91c-1.07,10.1-.37,20.86-.09,30.69.24,8.45.06,11.24,2.17,19.32,5.14,19.68,14.58,37.53,22.6,55.67,2.56,5.78,9.81.76,7.25-5Z"/><path class="cls-1" d="M101.47,43.72c-4.81.9-11.74-8.58-12.81-14.09-1.62-8.33,6.24-16,11.88-18.12,8.39-3.21,14.11,9.07,11.81,17.86-1.17,4.46-10.42,19.71-15.65,15.55-4.48-3.56-8.83,5.25-4.36,8.79,5.16,4.1,10.24,2.2,15-2.06s10.87-10.09,13.43-16.92c4.61-12.32-3.95-32.61-14.8-34.56C95.35-1.72,81.11,12.24,80.19,25.56c-1,14.43,11.87,30.26,23.27,28.13,5.25-1,3.24-10.95-2-10Z"/><path class="cls-1" d="M58.73,110.06c12.2-1.34,22.74-6.75,35.35-6.13a241.55,241.55,0,0,1,42.67,6.2c5.18,1.2,7.63-8.66,2.41-9.87A258.92,258.92,0,0,0,99.2,94c-6.2-.45-12.56-1-18.77-.27C73,94.57,66.39,99,59,99.77c-5.25.58-5.53,10.87-.22,10.29Z"/><path class="cls-1" d="M61.37,160.43c26.69-3.83,53.33,2.16,80-.73,5.25-.57,5.53-10.86.22-10.29-26.71,2.89-53.35-3.1-80,.73-5.22.75-5.5,11-.22,10.29Z"/><path class="cls-1" d="M96.91,55.75c-3.15,26.5-2.13,53-2.13,79.6,0,25-1.62,50-2.78,75-.31,6.62,8,6.79,8.26.17,1.16-24.95,2.78-49.95,2.79-74.95,0-26.66-1-53.08,2.13-79.6.78-6.54-7.49-6.66-8.27-.17Z"/><path class="cls-1" d="M128.44,992.4c4.67-23,1.5-47,.16-70.28L124,841.41c-.15-2.59-1.61-5.42-4-5.23l-24,1.91c-5.85.46-14.34-.7-19.8,1.65-7.42,3.19-6,12.73-6.52,21.39-2.21,39-3.78,78-1.48,117.08.38,6.54,8.65,6.79,8.27.18h0c-1.73-29.25-1.36-58.5,0-87.8.41-9.2-1.71-35.92,6-41.15,3.55-2.41,11.71-.93,16-1.27l21.37-1.7-4-5.23L120,915.49c1.39,24,5.4,50.28.56,74"/><path class="cls-1" d="M89.59,59.53c-13.71,24-15.8,45.25-15.32,74.24.48,29.39,4.33,54.89,14.5,81.36,1.15,3,4.77.45,3.63-2.52-9.89-25.74-13.53-50.13-14-78.75-.21-13-.64-26.61,1.51-39.48C82,81.86,87.24,72.44,93.11,62.2c1.55-2.71-2-5.37-3.52-2.67Z"/><path class="cls-1" d="M104.44,53.13c2.36,10.94,7,19.67,10.91,29.73,5.7,14.58,6.42,30.35,7.05,46.41,1.3,32.9-7.06,57.72-26.55,80.11-2,2.26.88,6,2.85,3.7,17.06-19.61,27.56-42.13,28-71.41.24-14.73-.25-31-3-45.37-3-16-11.91-28.66-15.33-44.45-.69-3.18-4.71-1.92-4,1.28Z"/><path class="cls-1" d="M4.63,991.12c24.19-5.08,42.87-.24,66.4.11,10.44.15,19.75-1.44,30.73-.57,28.54,2.27,59,2.12,87.34,9.21,4.72,1.18,6.89-6.07,2.17-7.25-14.83-3.7-29.12-7-44.5-7.06-17.18-.09-31.53-3.12-48.44-4.74-15.52-1.49-31.18,1.45-46.8.76-17.17-.75-31.62-1.39-48.75,2.2-4.76,1-2.91,8.34,1.85,7.34Z"/><path class="cls-1" d="M119,264.41v36.81a1.27,1.27,0,0,0,2.53,0V264.41a1.27,1.27,0,0,0-2.53,0Z"/><path class="cls-1" d="M131.2,266.9c-2.93,3.82-5.88,7.63-8.79,11.48-1,1.3-2.45,2.64-2.23,4.44.3,2.44,4.41,5.78,5.78,7.41l9.73,11.6c1.05,1.25,2.83-.54,1.79-1.79-4.16-5-9.62-10-13-15.47-2.41-3.95.6-5.59,3-8.74l5.86-7.66c1-1.29-1.21-2.55-2.19-1.27Z"/><path class="cls-1" d="M141.43,264.21V299a1.27,1.27,0,0,0,2.53,0V264.21a1.27,1.27,0,0,0-2.53,0Z"/><path class="cls-1" d="M141.69,263.88c4.48,13,12.68,23.35,19.4,35.23a1.27,1.27,0,0,0,2.19-1.28c-6.6-11.66-14.75-21.85-19.15-34.63-.53-1.53-3-.87-2.44.68Z"/><path class="cls-1" d="M161,262.21v36.61a1.27,1.27,0,0,0,2.53,0V262.21a1.27,1.27,0,0,0-2.53,0Z"/><path class="cls-1" d="M170.16,261.4q.76,18.11,1.08,36.22a1.27,1.27,0,0,0,2.53,0q-.32-18.11-1.08-36.22c-.06-1.62-2.6-1.63-2.53,0Z"/><path class="cls-1" d="M198.52,266.46c-5.92-7.58-14.71-9-19,1.21-2.94,7-2.63,23.79,3.5,29.39,6.71,6.12,15.18-4.39,17.55-9.95,1-2.38,3.45-9.66,1.52-12.17-2.12-2.76-9.64-1.85-12.76-2.2-1.62-.18-1.6,2.35,0,2.53,2.25.26,6.23-.08,8.33.94,3.45,1.7,2.2,5.09,1.29,8.05a21.46,21.46,0,0,1-5.25,8.61c-3.74,3.63-9.48,3-11.12-2.12a44.17,44.17,0,0,1-2-16c.22-3.05.87-6.53,3-8.83,4.77-5.09,10-1.76,13.19,2.36,1,1.29,2.78-.52,1.79-1.79Z"/><path class="cls-1" d="M206.46,259.61v37.61a1.27,1.27,0,0,0,2.53,0V259.61a1.27,1.27,0,0,0-2.53,0Z"/><path class="cls-1" d="M221.26,260.41v37a1.27,1.27,0,0,0,2.53,0v-37a1.27,1.27,0,0,0-2.53,0Z"/><path class="cls-1" d="M208.45,281.21a57,57,0,0,1,13.87-.67c1.63.12,1.62-2.41,0-2.53a59.53,59.53,0,0,0-14.54.76c-1.6.28-.92,2.72.67,2.44Z"/><path class="cls-1" d="M231.74,262.2a132.3,132.3,0,0,0,20.2.49c1.62-.08,1.63-2.61,0-2.53a132.3,132.3,0,0,1-20.2-.49c-1.62-.16-1.61,2.37,0,2.53Z"/><path class="cls-1" d="M238.56,261.57A152.1,152.1,0,0,1,241.19,298c-.08,1.63,2.46,1.62,2.53,0A155.09,155.09,0,0,0,241,260.9c-.31-1.6-2.75-.92-2.44.67Z"/><path class="cls-1" d="M272.81,264.72c-2.06-3.82-5-8.89-10.33-7.61-3.47.84-6.33,4.63-6.56,8-.41,5.93,3.8,9.4,7.54,12.9,3,2.79,5.3,5.11,5.55,9.44.23,3.83.5,9.51-5.08,10.46-5.81,1-9-7.58-10.46-11.64-.55-1.52-3-.87-2.44.67,1.59,4.44,3.92,10.7,8.54,12.8a8.24,8.24,0,0,0,11-3.9c2-4.27,1.7-12.25-1.17-16.12-1.75-2.37-4.65-3.62-6.68-5.72-2.89-3-4.41-5.46-3.23-9.6,1.84-6.48,8.71-2.92,11.12,1.56.77,1.44,3,.16,2.19-1.27Z"/><path class="cls-1" d="M295.36,257.38c2.67,13.83,3,28,5,41.95.2,1.46,2.43,1,2.48-.34.23-6.5,3.36-12.86,5.7-18.81a83.89,83.89,0,0,0,5.14-21.4l-2.48.34c2.38,13.23,5,26.42,6.31,39.81a1.27,1.27,0,0,0,2.48.34c3.82-14,8.77-27.46,6.86-42.23-.21-1.59-2.74-1.61-2.53,0,1.88,14.55-3,27.77-6.77,41.56l2.49.33c-1.29-13.62-4-27-6.4-40.48-.28-1.53-2.34-1-2.49.33A95.14,95.14,0,0,1,304.68,283c-2,5.12-4.22,10.47-4.41,16l2.49-.34c-1.95-13.94-2.29-28.1-5-41.94-.31-1.6-2.75-.92-2.44.67Z"/><path class="cls-1" d="M330.1,258.27c1.25,8.31,9.61,14.68,15.38,20.05,1.19,1.1,3-.68,1.79-1.79-5.44-5.06-13.56-11.17-14.73-18.93-.24-1.61-2.68-.93-2.44.67Z"/><path class="cls-1" d="M351.56,254.6c-6.35,14.3-7.5,29.56-8.23,45-.08,1.62,2.45,1.62,2.53,0,.71-15,1.73-29.87,7.89-43.73.65-1.48-1.53-2.77-2.19-1.28Z"/></svg>